<?xml version="1.0" encoding="utf-8"?>
<!-- Generator: Adobe Illustrator 16.0.4, SVG Export Plug-In . SVG Version: 6.00 Build 0)  -->
<!DOCTYPE svg PUBLIC "-//W3C//DTD SVG 1.1//EN" "http://www.w3.org/Graphics/SVG/1.1/DTD/svg11.dtd">
<svg version="1.1" id="Layer_1" xmlns="http://www.w3.org/2000/svg" xmlns:xlink="http://www.w3.org/1999/xlink" x="0px" y="0px"
	 width="432px" height="72px" viewBox="0 0 432 72" style="enable-background:new 0 0 432 72;" xml:space="preserve">
<style type="text/css">
<![CDATA[
	.st0{fill:#2B5134;}
	.st1{fill:#9B8542;}
]]>
</style>
<g>
	<g>
		<path class="st1" d="M80.6,32.4c0,2,0.2,2,1.9,2h4c2.4,0,4.3-0.1,5-0.5c0.6-0.3,1.1-0.7,1.5-2.6l0.5-3c0.3-0.5,1.3-0.5,1.5,0
			c0,1.8-0.2,4.8-0.2,7.6c0,2.7,0.2,5.6,0.2,7.3c-0.2,0.4-1.1,0.4-1.5,0l-0.6-2.9c-0.2-1.4-0.8-2.4-1.9-2.9
			c-0.8-0.3-2.3-0.4-4.5-0.4h-4c-1.8,0-1.9,0.1-1.9,2v10.4c0,7.9,0.1,9,3.6,9.4l2,0.2c0.4,0.3,0.2,1.7-0.1,1.9
			c-3.5-0.1-5.5-0.2-7.8-0.2c-2.6,0-4.6,0.1-7.3,0.2c-0.4-0.2-0.5-1.4-0.1-1.9l1.5-0.2c3.4-0.5,3.5-1.5,3.5-9.4V22.5
			c0-7.9-0.1-8.9-3.5-9.5l-0.9-0.2c-0.3-0.3-0.2-1.7,0.1-1.9c2.5,0.2,4.5,0.2,6.8,0.2h10.8c3.8,0,7.2,0,7.9-0.2
			c0,3.5,0.1,7.1,0.2,9.9c-0.2,0.5-1,0.7-1.4,0.2c-0.5-3.4-1.2-6.1-4.1-7.1c-1.3-0.4-3.2-0.4-5.7-0.4h-3.6c-1.8,0-1.8,0.2-1.8,3
			V32.4z"/>
		<path class="st1" d="M104,22.5c0-7.1-0.2-8.4-2.6-8.8l-1.9-0.3c-0.4-0.4-0.4-1.6,0.1-1.9c3.3-0.4,7.3-0.6,13.1-0.6
			c3.6,0,7.1,0.4,9.8,2.3c2.8,1.9,4.9,5.3,4.9,10.5c0,7.1-4.4,11-7.3,12.6c-0.3,0.5,0,1.2,0.3,1.8c4.7,9.7,7.8,15.7,11.8,20
			c1,1.1,2.5,2,4,2.1c0.3,0.2,0.4,0.8,0.1,1.1c-0.5,0.2-1.5,0.4-2.6,0.4c-5,0-8-1.9-12.1-9.5c-1.5-2.8-3.9-8-5.7-11.3
			c-0.9-1.7-1.8-2.4-4.2-2.4c-2.6,0-2.8,0.1-2.8,1.7v9.5c0,7.9,0.1,8.8,3.5,9.4l1.2,0.2c0.4,0.4,0.2,1.7-0.1,1.9
			c-2.6-0.1-4.6-0.2-7-0.2c-2.5,0-4.6,0.1-7.3,0.2c-0.4-0.2-0.5-1.4-0.1-1.9l1.5-0.2c3.4-0.5,3.5-1.5,3.5-9.4V22.5z M108.8,33.3
			c0,1.4,0,2.2,0.2,2.5c0.2,0.2,1.1,0.4,4,0.4c2.1,0,4.3-0.3,6-2c1.6-1.6,2.9-4.2,2.9-9.3c0-5.9-2.9-11.6-9.4-11.6
			c-3.6,0-3.8,0.3-3.8,2.4V33.3z"/>
		<path class="st1" d="M159.8,43.4c-0.4-1.7-0.6-1.9-2.4-1.9h-8.8c-1.5,0-1.8,0.2-2.2,1.8l-2.1,7.9c-0.9,3.4-1.3,5.4-1.3,6.2
			c0,0.9,0.3,1.4,1.7,1.5l1.9,0.2c0.4,0.4,0.4,1.6-0.1,1.9c-1.5-0.1-3.3-0.1-6.1-0.2c-1.9,0-4,0.2-5.6,0.2c-0.4-0.3-0.5-1.5-0.1-1.9
			l1.9-0.2c1.4-0.1,2.7-1,3.5-3.7c1.1-3.5,2.7-8.3,5.2-16.8l6-20.3c0.8-2.7,1.2-4.1,1-5.3c1.4-0.5,2.4-1.9,3-2.9
			c0.4,0,0.8,0.2,0.9,0.7c0.8,3.3,1.7,6.8,2.6,10.1l8,30.2c1.7,6.5,2.5,7.6,5,8l1.6,0.2c0.4,0.4,0.3,1.6,0,1.9
			c-2.4-0.1-4.5-0.2-7.1-0.2c-2.8,0-5,0.2-6.7,0.2c-0.5-0.3-0.5-1.5-0.1-1.9l1.7-0.2c1.2-0.1,2.1-0.6,2.1-1.4c0-0.8-0.3-2.2-0.8-4
			L159.8,43.4z M148.2,36.7c-0.5,1.7-0.4,1.8,1.2,1.8h7.2c1.7,0,1.8-0.3,1.3-2.3l-3.2-12.2c-0.5-1.8-1-3.8-1.3-4.7h-0.1
			c-0.2,0.4-0.8,2.2-1.4,4.4L148.2,36.7z"/>
		<path class="st1" d="M211.2,48c0,2.3,0,11.2,0.2,13.2c-0.1,0.5-0.5,0.8-1.1,0.8c-0.7-1.3-2.4-3.9-7.5-11.4l-13.6-19.8
			c-1.6-2.3-5.6-8.5-6.8-10.1h-0.1c-0.2,0.9-0.3,2.6-0.3,4.9v16.4c0,3.5,0.1,13.3,1.1,15.6c0.4,0.8,1.5,1.3,3,1.4l1.8,0.2
			c0.4,0.6,0.3,1.5-0.1,1.9c-2.6-0.1-4.7-0.2-6.9-0.2c-2.5,0-4,0.1-6.1,0.2c-0.4-0.4-0.5-1.4-0.1-1.9l1.6-0.2
			c1.3-0.1,2.3-0.7,2.6-1.5c0.8-2.7,0.8-11.9,0.8-15.5V20.2c0-2.1-0.1-3.7-1.3-5.4c-0.8-1.1-2.2-1.6-3.6-1.8l-1-0.2
			c-0.4-0.5-0.4-1.6,0.1-1.9c2.5,0.2,5.6,0.2,6.6,0.2c0.9,0,1.9-0.1,2.7-0.2c1.2,3.8,8.1,13.8,10,16.5l5.7,8.2
			c4,5.9,6.9,10,9.7,13.6h0.1c0.2-0.4,0.2-1.6,0.2-3.2V30.1c0-3.5-0.1-13.3-1.2-15.6c-0.4-0.7-1.3-1.1-3.6-1.5l-1-0.2
			c-0.4-0.5-0.4-1.7,0.1-1.9c2.7,0.2,4.7,0.2,6.9,0.2c2.5,0,4-0.1,6-0.2c0.5,0.4,0.5,1.4,0.1,1.9l-0.8,0.2c-1.9,0.4-3,1-3.3,1.6
			c-1,2.7-0.9,12-0.9,15.5V48z"/>
		<path class="st1" d="M225,16.4c4.1-4.3,9.4-6.4,15.3-6.4c3.1,0,7.4,0.8,10.1,1.8c0.7,0.2,1.1,0.4,1.6,0.3c0.1,1.7,0.3,6.5,0.8,11
			c-0.3,0.5-1.1,0.6-1.5,0.2c-0.9-5.1-3.4-11-11.6-11c-8.7,0-16.1,7.3-16.1,22.8c0,15.8,7.5,24.5,16.9,24.5
			c7.3,0,10.6-6.3,11.9-10.7c0.4-0.4,1.2-0.2,1.5,0.3c-0.4,3.9-1.9,8.9-2.7,10.3c-0.7,0.2-1.4,0.5-2,0.8c-1.2,0.6-5.3,1.7-9,1.7
			c-5.1,0-10-1.4-14.1-5c-4.5-4.1-8.1-11-8.1-20.7C217.8,28,220.7,20.8,225,16.4z"/>
		<path class="st1" d="M261.7,22.6c0-8-0.1-9.2-3.6-9.6l-1.5-0.2c-0.4-0.3-0.2-1.7,0.1-1.9c2.9,0.2,4.9,0.2,7.4,0.2
			c2.3,0,4.3-0.1,7.3-0.2c0.4,0.2,0.5,1.6,0.1,1.9l-1.5,0.2c-3.5,0.4-3.6,1.7-3.6,9.6v26.8c0,8,0.1,9,3.6,9.5l1.5,0.2
			c0.3,0.3,0.2,1.7-0.1,1.9c-2.9-0.1-4.9-0.2-7.3-0.2c-2.5,0-4.5,0.1-7.4,0.2c-0.4-0.2-0.5-1.4-0.1-1.9l1.5-0.2
			c3.5-0.5,3.6-1.6,3.6-9.5V22.6z"/>
		<path class="st1" d="M287.6,62c-4.9,0-8-2-9.1-2.8c-0.7-1.7-1.5-7-1.6-10.5c0.3-0.5,1.2-0.7,1.4-0.2c0.9,3.8,3.3,11.2,10.1,11.2
			c4.9,0,7.3-4.1,7.3-8.6c0-3.3-0.5-7-4.8-10.5l-5.6-4.7c-2.9-2.5-6.3-6.8-6.3-12.9c0-7.1,4.3-12.9,12-12.9c1.8,0,3.9,0.4,5.5,1
			c0.8,0.2,1.6,0.5,2.1,0.5c0.5,1.8,1.1,6,1.1,9.2c-0.2,0.5-1.2,0.7-1.5,0.2c-0.8-3.6-2.3-8.5-8-8.5c-5.7,0-7,4.9-7,8.3
			c0,4.4,2.8,7.4,5,9.2l4.7,3.8c3.7,2.9,7.3,7.3,7.3,14.4C300,56.4,295.2,62,287.6,62z"/>
		<path class="st1" d="M313.1,16.4c4.3-4.3,9.7-6.4,15.7-6.4c3.1,0,7.6,0.8,10.3,1.8c0.7,0.2,1.1,0.4,1.6,0.3
			c0.1,1.7,0.4,6.5,0.8,11c-0.3,0.5-1.2,0.6-1.6,0.2c-0.9-5.1-3.5-11-12-11c-8.9,0-16.5,7.3-16.5,22.8c0,15.8,7.8,24.5,17.3,24.5
			c7.5,0,10.8-6.3,12.2-10.7c0.4-0.4,1.3-0.2,1.5,0.3c-0.4,3.9-1.9,8.9-2.8,10.3c-0.7,0.2-1.4,0.5-2,0.8c-1.3,0.6-5.5,1.7-9.2,1.7
			c-5.2,0-10.3-1.4-14.5-5c-4.7-4.1-8.3-11-8.3-20.7C305.8,28,308.7,20.8,313.1,16.4z"/>
		<path class="st1" d="M365.7,43.4c-0.4-1.7-0.6-1.9-2.4-1.9h-8.8c-1.5,0-1.8,0.2-2.2,1.8l-2,7.9c-0.9,3.4-1.3,5.4-1.3,6.2
			c0,0.9,0.3,1.4,1.7,1.5l1.9,0.2c0.4,0.4,0.4,1.6-0.1,1.9c-1.5-0.1-3.3-0.1-6.1-0.2c-1.9,0-4,0.2-5.6,0.2c-0.4-0.3-0.5-1.5-0.1-1.9
			l1.9-0.2c1.4-0.1,2.7-1,3.5-3.7c1.1-3.5,2.7-8.3,5.2-16.8l6-20.3c0.8-2.7,1.2-4.1,1-5.3c1.4-0.5,2.4-1.9,3-2.9
			c0.4,0,0.8,0.2,0.9,0.7c0.8,3.3,1.7,6.8,2.6,10.1l8,30.2c1.7,6.5,2.5,7.6,5,8l1.6,0.2c0.4,0.4,0.3,1.6,0,1.9
			c-2.4-0.1-4.5-0.2-7.1-0.2c-2.8,0-5,0.2-6.7,0.2c-0.5-0.3-0.5-1.5-0.1-1.9l1.7-0.2c1.2-0.1,2.1-0.6,2.1-1.4c0-0.8-0.3-2.2-0.8-4
			L365.7,43.4z M354,36.7c-0.5,1.7-0.4,1.8,1.2,1.8h7.2c1.7,0,1.8-0.3,1.3-2.3l-3.2-12.2c-0.5-1.8-1-3.8-1.3-4.7h-0.1
			c-0.2,0.4-0.8,2.2-1.4,4.4L354,36.7z"/>
		<path class="st1" d="M417.8,48c0,2.3,0,11.2,0.2,13.2c-0.1,0.5-0.5,0.8-1.1,0.8c-0.7-1.3-2.4-3.9-7.5-11.4l-13.6-19.8
			c-1.6-2.3-5.6-8.5-6.8-10.1h-0.1c-0.2,0.9-0.3,2.6-0.3,4.9v16.4c0,3.5,0.1,13.3,1.1,15.6c0.4,0.8,1.5,1.3,3,1.4l1.8,0.2
			c0.3,0.6,0.3,1.5-0.1,1.9c-2.6-0.1-4.7-0.2-6.9-0.2c-2.5,0-4,0.1-6.1,0.2c-0.4-0.4-0.5-1.4-0.1-1.9l1.6-0.2
			c1.3-0.1,2.3-0.7,2.6-1.5c0.8-2.7,0.8-11.9,0.8-15.5V20.2c0-2.1-0.1-3.7-1.3-5.4c-0.8-1.1-2.2-1.6-3.6-1.8l-1-0.2
			c-0.4-0.5-0.4-1.6,0.1-1.9c2.5,0.2,5.6,0.2,6.6,0.2c0.9,0,1.9-0.1,2.7-0.2c1.2,3.8,8.1,13.8,10,16.5l5.7,8.2
			c4,5.9,6.9,10,9.7,13.6h0.1c0.2-0.4,0.2-1.6,0.2-3.2V30.1c0-3.5-0.1-13.3-1.2-15.6c-0.4-0.7-1.3-1.1-3.6-1.5l-1-0.2
			c-0.4-0.5-0.4-1.7,0.1-1.9c2.7,0.2,4.7,0.2,6.9,0.2c2.5,0,4-0.1,6-0.2c0.5,0.4,0.5,1.4,0.1,1.9l-0.8,0.2c-1.9,0.4-3,1-3.3,1.6
			c-1,2.7-0.9,12-0.9,15.5V48z"/>
	</g>
	<g>
		<path class="st0" d="M29.5,28.6L24.9,44c0,0,0.9-0.4,1.8-0.4c0.8,0,1.9,0.6,1.9,1s-1.7,2.2-1,2.2c0.7,0,1-0.4,1.3-0.4
			c0.3,0,0.6,0.1,0.6,0.6c0,0.4-0.8,0.6-0.8,1.1c0,0.4,0.6,0.3,1,0.6c0.4,0.3,0.4,0.7,0.4,0.7s0,1.4,0,1.8c0,0.3,0.8,0.2,1.6,0.7
			c0.8,0.5,1.2,0.7,1.7,0.8c0.5,0.1,1.1,0.4,1.1,0.9c0,0.5-1.2,1-1.2,1.4c0,0.4,1.4,1.8,1.4,1.8s0.6,0,0.8,0.2
			c0.2,0.2-0.1,0.9,0.6,0.9c0.7,0,0.9-0.8,1.7-0.8c0.3,0,0.4,0,0.4,0.3c0,0.2-0.3,0.4-0.3,0.8c0,0.4,0.1,0.4,0.4,0.4
			c0.3,0,0.8-0.8,2.6-0.8c1.1,0,1.7,0.2,1.7,0.9c0,0.7-1.5,1.2-1.5,1.9c0,0.3,0.3,0.5,0.5,0.5c0.2,0,0.4-0.3,0.8-0.3
			c0.4,0,0.7-0.1,0.7-0.2c0-0.1-0.2-0.1-0.2-0.6c0-0.2,0.1-0.4,0.6-0.4c0.5,0,0.5,0.3,0.9,0.3c0.4,0,0.6-0.2,0.6-0.5
			c0-0.3,0-0.6,0-0.6s0-0.2-0.7-0.7c-0.7-0.5-0.7-0.5-0.7-0.9c0-0.4,0.4-0.8,0.8-0.8s1.2,0.1,1.6,0.6c0.4,0.5,0.6,1.1,0.9,1.1
			c0.3,0,0.4-0.1,0.4-0.3c0-0.3-0.9-1-0.9-1.3s0.1-0.5,0.5-0.5c0.4,0,0.4,0.2,0.6,0.2c0.2-0.1,0.7-0.4,0.7-0.9
			c0-0.5-0.9-1.9-0.9-2.3c0-0.4,0.2-0.5,0.6-0.5c0.4,0,1.1,0.8,1.4,0.8c0.3,0,0.5-0.1,0.5-0.4c0-0.3,0-0.7-0.3-1c-0.3-0.3-1-1-1-1.5
			c0-0.6,0.4-0.7,0.4-1c0-0.3-0.7-0.9-1-1.1c-0.3-0.2-0.5-0.3-0.5-0.5c0-0.1,0-0.1,0-0.2c0-0.2,0-0.4,0-0.4
			c-5.2-2.6-9.2-6.5-12.2-10v13h-2.2V33.7C30.6,30.7,29.5,28.6,29.5,28.6z M39.5,46.2l2.5,2.1l0.7,7.3h-5.8L39.5,46.2z"/>
		<path class="st0" d="M9.8,60.9c0.3-0.2,1.2-0.1,1.2-0.5c0-0.4-1.2-0.5-1.2-1.2c0-0.4,0.3-0.5,0.3-0.7c0-0.2-0.2-0.2-0.2-0.5
			c0-0.3,0.3-0.9,1-0.9c0.7,0,1,0.4,1.5,0.4c0.5,0,0-0.5,0-0.7c0-0.9,1.7-1.1,1.7-1.4c0-0.3-1.2-0.5-1.2-1.2c0-1.7,2.4-2.2,2.4-2.6
			c0-0.4-1.8,0.2-1.8-0.9c0-1.3,3.1-1,3.1-1.4c0-0.3-0.5-0.6-1-0.6c-0.5,0-1.7,0.3-2,0.3c-0.3,0-0.8,0-0.8-0.4
			c0-1.4,2.4-2.3,2.4-2.5c0-0.3-0.3-0.6-0.7-0.8c-0.4-0.2-1.3-0.8-1.3-1.1c0-0.4,1.5-0.6,2.4-0.6c0.9,0,1.5,0.3,1.9-0.1
			c0.5-0.4,0.1-0.6,0.1-1.3S18,41,18,41l3.2,2.7c0,0,1.1-0.8,1.8-1l5.2-17.5h0.9c0.4,0.3,1,0.8,1.7,1.5c0,0,0,0,0,0
			c0.5,0.5,1.1,1,1.8,1.6V21H26v-2.2h6.7v-6.7h2.2v6.7h6.7V21h-6.7v9.5c2.7,2.8,5.6,6.5,7.3,10.3c0,0,0,0,0,0
			c1.9,1.5,3.8,2.8,5.8,3.8l0.8,0.4c0.4-0.5,0.8-1,1.2-1c0.7,0,1,0.5,1,0.5V46c0.5,0.9,1.4,0.5,1.7,0.5c0.7,0,1,0.3,1,0.8
			c0,0.7-0.5,1.2-0.4,1.6c0.2,0.6,1.2,0,1.2,0.8c0,0.4-0.3,0.7-0.1,0.9c0.2,0.2,0.6-0.2,0.8-0.2c0.3,0,0.5,0.2,0.5,0.6
			c0,0.4-0.2,0.3-0.2,0.5c0,0.2,0.2,0.4,0.4,0.4c0.2,0,0.4-0.5,0.8-0.5s0.9,0.2,0.9,0.9c0,0.7-0.6,1.6-0.6,1.9
			c0,0.3,0.2,0.7,0.7,0.7c0.9,0,1.1-0.5,1.8-0.5c0.7,0,1.1,0.5,1.1,0.5v2.5c0.3,0.2,0.4,0.1,0.5,0.1v-44c0-1.9-1.5-3.5-3.5-3.5H12.5
			C10.5,10,9,11.5,9,13.4v45.4C9,59.6,9.3,60.4,9.8,60.9C9.8,60.9,9.8,60.9,9.8,60.9z"/>
	</g>
</g>
</svg>
