<svg width="361px" height="125px" viewBox="0 0 361 125" version="1.1" xmlns="http://www.w3.org/2000/svg" xmlns:xlink="http://www.w3.org/1999/xlink">
    <title>fus-color-2px-border-radius</title>
    <desc>Created with Sketch.</desc>
    <defs>
        <polygon id="path-1" points="56 62.5535 56 124.94 0.274 124.94 0.274 0.167 56 0.167"></polygon>
    </defs>
    <g id="Page-1" stroke="none" stroke-width="1" fill="none" fill-rule="evenodd">
        <g id="FUS_digital-use_hor_C" transform="translate(1.000000, 0.000000)">
            <g id="Group-3" transform="translate(304.000000, 0.000000)">
                <mask id="mask-2" fill="white">
                    <use xlink:href="#path-1"></use>
                </mask>
                <g id="Clip-2"></g>
                <path d="M26.027,125 C14.208,125 6.748,120.311 4.077,118.327 C2.386,114.358 0.556,101.546 0.274,93.071 C0.977,91.806 3.091,91.446 3.653,92.526 C5.765,101.728 11.531,119.41 27.854,119.41 C39.677,119.41 45.448,109.488 45.448,98.664 C45.448,90.723 44.178,81.891 33.904,73.409 L20.537,62.223 C13.506,56.272 5.342,45.988 5.342,31.192 C5.342,14.059 15.757,0.167 34.047,0.167 C38.409,0.167 43.473,1.073 47.134,2.516 C48.961,3.055 50.933,3.595 52.059,3.595 C53.326,7.927 54.59,18.025 54.59,25.605 C54.027,26.688 51.777,27.228 51.072,26.145 C49.242,17.488 45.448,5.76 31.936,5.76 C18.144,5.76 15.191,17.488 15.191,25.786 C15.191,36.248 21.946,43.644 27.152,47.973 L38.409,56.991 C47.272,64.028 56,74.489 56,91.625 C56,111.469 44.32,125 26.027,125" id="Fill-1" fill="#917E43" mask="url(#mask-2)"></path>
            </g>
            <path d="M163.749,52.756 C163.749,57.625 164.173,57.625 168.388,57.625 L177.959,57.625 C183.729,57.625 188.231,57.262 189.919,56.542 C191.465,55.821 192.594,54.919 193.438,50.228 L194.705,43.012 C195.41,41.933 197.8,41.933 198.362,43.012 C198.362,47.345 197.8,54.559 197.8,61.232 C197.8,67.728 198.362,74.58 198.362,78.727 C197.8,79.813 195.688,79.813 194.705,78.727 L193.299,71.7 C192.732,68.448 191.465,65.921 188.794,64.838 C186.821,64.119 183.307,63.937 177.959,63.937 L168.388,63.937 C164.173,63.937 163.749,64.119 163.749,68.804 L163.749,93.884 C163.749,112.825 164.029,115.532 172.332,116.433 L177.117,116.975 C177.959,117.698 177.678,120.944 176.836,121.482 C168.53,121.123 163.749,120.944 158.121,120.944 C151.929,120.944 147.146,121.123 140.53,121.482 C139.686,120.944 139.405,118.058 140.249,116.975 L143.764,116.433 C151.929,115.168 152.21,112.825 152.21,93.884 L152.21,28.944 C152.21,10.001 151.929,7.473 143.764,6.211 L141.513,5.854 C140.672,5.128 140.95,1.884 141.799,1.344 C147.707,1.702 152.491,1.884 158.121,1.884 L184.008,1.884 C193.017,1.884 201.176,1.884 203.003,1.344 C203.003,9.638 203.148,18.296 203.427,25.154 C203.003,26.237 201.037,26.777 200.051,25.698 C198.925,17.581 197.237,11.08 190.197,8.56 C187.106,7.657 182.459,7.473 176.553,7.473 L167.971,7.473 C163.749,7.473 163.749,7.834 163.749,14.691 L163.749,52.756" id="Fill-4" fill="#917E43"></path>
            <path d="M288.133,47.159 C288.133,35.979 287.854,15.232 285.461,9.821 C284.476,7.657 281.94,6.393 278.425,6.031 L274.906,5.668 C274.063,4.408 274.344,2.061 275.188,1.344 C280.533,1.702 285.742,1.884 291.23,1.884 C297.139,1.884 300.938,1.702 306.005,1.344 C307.127,2.247 306.988,4.59 306.283,5.668 L302.907,6.031 C299.389,6.393 296.575,8.015 295.874,10.362 C293.759,16.315 293.904,37.06 293.904,47.159 L293.904,67.544 C293.904,83.237 291.932,99.837 284.055,110.659 C278.001,119.141 267.592,123.827 257.18,123.827 C247.469,123.827 237.759,121.482 230.867,113.905 C223.407,105.969 219.889,92.801 219.889,71.336 L219.889,28.761 C219.889,10.001 219.61,6.933 211.446,6.031 L207.931,5.668 C207.081,4.951 207.365,1.884 208.209,1.344 C215.249,1.702 220.025,1.884 225.658,1.884 C231.43,1.884 236.07,1.702 242.968,1.344 C243.809,1.884 244.09,4.951 243.246,5.668 L239.87,6.031 C231.705,6.933 231.43,10.001 231.43,28.761 L231.43,67.728 C231.43,96.767 238.46,115.892 259.993,115.892 C280.392,115.892 288.133,95.324 288.133,67.903 L288.133,47.159" id="Fill-5" fill="#917E43"></path>
            <path d="M72.251,86.878 L78.29,91.909 L79.907,109.179 L66.103,109.179 L72.251,86.878 Z M48.6,45.031 L37.7,81.464 C37.7,81.464 39.916,80.448 41.876,80.448 C43.84,80.448 46.422,81.867 46.422,82.778 C46.422,83.68 42.352,87.894 44.061,87.894 C45.764,87.894 46.458,86.841 47.184,86.841 C47.909,86.841 48.489,87.132 48.489,88.152 C48.489,89.165 46.676,89.676 46.676,90.657 C46.676,91.636 48.204,91.421 49.146,92.069 C50.09,92.729 50.126,93.669 50.126,93.669 C50.126,93.669 50.235,97.087 50.235,97.85 C50.235,98.609 52.197,98.358 53.977,99.448 C55.756,100.54 56.736,101.011 57.972,101.229 C59.207,101.444 60.552,102.282 60.552,103.444 C60.552,104.605 57.781,105.873 57.781,106.78 C57.781,107.685 61.122,110.976 61.122,110.976 C61.122,110.976 62.493,111.084 62.933,111.524 C63.373,111.968 62.671,113.674 64.27,113.674 C65.867,113.674 66.44,111.717 68.228,111.717 C68.919,111.717 69.232,111.745 69.232,112.34 C69.232,112.936 68.42,113.341 68.42,114.201 C68.42,115.057 68.755,115.151 69.375,115.151 C69.997,115.151 71.258,113.194 75.528,113.194 C78.187,113.194 79.512,113.644 79.512,115.414 C79.512,117.084 75.911,118.351 75.911,119.997 C75.911,120.808 76.579,121.12 77.056,121.12 C77.532,121.12 77.937,120.305 78.845,120.305 C79.751,120.305 80.61,120.187 80.61,119.803 C80.61,119.604 80.153,119.685 80.153,118.442 C80.153,117.961 80.365,117.538 81.469,117.538 C82.57,117.538 82.566,118.158 83.569,118.158 C84.568,118.158 85.071,117.777 85.071,117.014 L85.071,115.487 C85.071,115.487 84.999,114.915 83.331,113.792 C81.66,112.67 81.705,112.67 81.705,111.745 C81.705,110.81 82.685,109.833 83.616,109.833 C84.547,109.833 86.479,110.168 87.36,111.36 C88.242,112.552 88.79,114.007 89.483,114.007 C90.175,114.007 90.365,113.865 90.365,113.194 C90.365,112.528 88.148,110.836 88.148,110.047 C88.148,109.257 88.458,108.855 89.293,108.855 C90.127,108.855 90.2,109.334 90.703,109.215 C91.204,109.091 92.299,108.256 92.299,107.162 C92.299,106.063 90.106,102.675 90.106,101.771 C90.106,100.863 90.584,100.506 91.511,100.506 C92.444,100.506 94.014,102.436 94.757,102.436 C95.497,102.436 95.972,102.246 95.972,101.483 C95.972,100.721 95.853,99.716 95.256,99.099 C94.662,98.479 92.798,96.761 92.798,95.451 C92.798,94.135 93.657,93.709 93.657,92.967 C93.657,92.229 91.916,90.723 91.206,90.341 C90.485,89.963 90.058,89.601 90.032,89.081 C90.026,88.908 90.022,88.732 90.022,88.569 C90.022,88.003 90.058,87.529 90.058,87.529 C77.826,81.45 68.178,72.171 61.28,63.832 L61.28,94.604 L56.14,94.604 L56.14,57.156 C51.158,50.186 48.6,45.031 48.6,45.031 L48.6,45.031 Z" id="Fill-6" fill="#2A4832"></path>
            <path d="M2.99871596,121.144499 C4.0013555,120.682513 4.01356036,119.91921 3.07598022,119.315328 C3.07598022,119.315328 1.94006264,119.15 1.94006264,117.574 C1.94006264,116.554 2.6850867,116.37 2.6850867,115.953 C2.6850867,115.535 2.17207013,115.438 2.17207013,114.697 C2.17207013,113.956 2.91309406,112.661 4.58314798,112.661 C6.2532019,112.661 6.90322289,113.493 8.15426328,113.493 C9.40730374,113.493 8.15426328,112.289 8.15426328,111.732 C8.15426328,109.645 12.2803965,109.136 12.2803965,108.392 C12.2803965,107.651 9.45230519,107.134 9.45230519,105.564 C9.45230519,101.486 15.0654864,100.231 15.0654864,99.396 C15.0654864,98.561 10.8923517,99.768 10.8923517,97.357 C10.8923517,94.341 18.2165882,95.037 18.2165882,93.972 C18.2165882,93.276 17.0125493,92.626 15.7585088,92.626 C14.5084684,92.626 11.7723801,93.276 11.0293561,93.276 C10.2873322,93.276 9.1302948,93.331 9.1302948,92.254 C9.1302948,88.872 14.7854774,86.921 14.7854774,86.318 C14.7854774,85.716 14.0454535,84.93 13.0234205,84.467 C12.0033876,84.002 9.87131872,82.657 9.87131872,81.825 C9.87131872,80.99 13.3044296,80.384 15.4824999,80.384 C17.6615703,80.384 18.9586121,81.081 20.0736481,80.106 C21.1866841,79.132 20.3976586,78.67 20.3976586,77.045 C20.3976586,75.423 21.4156915,74.404 21.4156915,74.404 L29.0239371,80.896 C29.0239371,80.896 31.5860198,78.884 33.2560738,78.588 L45.6384736,37.178 L47.789543,37.178 C48.8175762,38.004 50.2396221,39.177 51.9306767,40.653 C53.2147182,41.775 54.6317639,43.051 56.1418127,44.471 L56.1418127,27.079 L40.2903009,27.079 L40.2903009,21.94 L56.1418127,21.94 L56.1418127,6.08099996 L61.2819787,6.08099996 L61.2819787,21.94 L77.1324904,21.94 L77.1324904,27.079 L61.2819787,27.079 L61.2819787,49.563 C67.7161864,56.273 74.6274096,64.866 78.5855374,74.01 C83.0326809,77.638 87.6388297,80.645 92.3219809,82.974 L94.1370395,83.874 C95.1410719,82.804 95.9910993,81.567 97.0821346,81.567 C98.6731859,81.567 99.5472142,82.838 99.5472142,82.838 L99.5472142,86.252 C100.623249,88.481 102.768318,87.444 103.524343,87.444 C105.112394,87.444 105.983422,88.103 105.983422,89.277 C105.983422,90.944 104.834385,92.212 105.112394,93.091 C105.549408,94.48 108.015488,93.21 108.015488,94.877 C108.015488,95.79 107.337466,96.589 107.892484,96.985 C108.450502,97.384 109.207526,96.589 109.842547,96.589 C110.472567,96.589 110.991584,97.067 110.991584,97.898 C110.991584,98.733 110.438566,98.691 110.438566,99.169 C110.438566,99.647 110.838579,100.125 111.312594,100.125 C111.790609,100.125 112.188622,99.008 113.299658,99.008 C114.414694,99.008 115.365725,99.49 115.365725,101.199 C115.365725,102.902 114.056683,104.892 114.056683,105.61 C114.056683,106.324 114.611701,107.276 115.685735,107.276 C117.749802,107.276 118.30782,106.206 119.977874,106.206 C121.646928,106.206 122.63996,107.319 122.63996,107.319 L122.63996,113.16 C123.249979,113.529 123.556989,113.508 123.809998,113.402 L123.809998,9.20999996 L123.809998,3.03894327 C123.809998,1.93495737 122.909565,1.03999996 121.810098,1.03999996 C121.810098,1.03999996 117.92797,1.03999996 115.638734,1.03999996 L8.17126383,1.03999996 C6.08722562,1.03999996 1.9991702,1.03999996 1.9991702,1.03999996 C0.895058988,1.03999996 -4.55599457e-15,1.93489077 -6.67971014e-15,3.03824516 C-6.67971014e-15,3.03824516 -1.48769885e-14,6.78143276 -1.48769885e-14,9.20999996 L-1.48769885e-14,116.67 C-1.48769885e-14,118.578 0.378057122,119.117456 0.378057122,119.117456 C0.721546689,120.157156 1.64920829,121.618165 1.75405663,121.718 L1,121 C1.41645398,121.39654 2.57410696,121.340146 3.56949611,120.881501 L2.99871596,121.144499 Z" id="Fill-7" fill="#2A4832"></path>
        </g>
    </g>
</svg>
