<svg width="795px" height="915px" viewBox="0 0 795 915" version="1.1" xmlns="http://www.w3.org/2000/svg" xmlns:xlink="http://www.w3.org/1999/xlink">
    <defs>
        <polygon id="path-1" points="389.702599 208 0.06 208 0.06 0.962 779.345198 0.962 779.345198 208"></polygon>
    </defs>
    <g id="Vertical" stroke="none" stroke-width="1" fill="none" fill-rule="evenodd">
        <polyline id="Fill-1" fill="#ffffff" points="530.347 363.198 502.353 464.737 565.212 464.737 557.832 386.102 530.347 363.198"></polyline>
        <path d="M632.816,434.038 C629.449,434.038 622.279,425.24 618.043,425.24 C613.806,425.24 611.633,426.871 611.633,430.997 C611.633,435.124 621.626,450.548 621.626,455.544 C621.626,460.541 616.63,464.343 614.35,464.887 C612.068,465.431 611.742,463.258 607.94,463.258 C604.138,463.258 602.728,465.105 602.728,468.69 C602.728,472.274 612.828,479.985 612.828,483.026 C612.828,486.067 611.961,486.72 608.81,486.72 C605.658,486.72 603.163,480.094 599.143,474.662 C595.125,469.231 586.326,467.71 582.088,467.71 C577.851,467.71 573.4,472.165 573.4,476.401 C573.4,480.636 573.182,480.638 580.786,485.742 C588.389,490.848 588.715,493.454 588.715,493.454 L588.715,500.407 C588.715,503.882 586.433,505.619 581.873,505.619 C577.31,505.619 577.335,502.796 572.313,502.796 C567.28,502.796 566.321,504.708 566.321,506.923 C566.321,512.572 568.402,512.2 568.402,513.115 C568.402,514.854 564.492,515.398 560.365,515.398 C556.238,515.398 554.39,519.089 552.218,519.089 C550.046,519.089 547.004,517.677 547.004,513.984 C547.004,506.49 563.407,500.733 563.407,493.13 C563.407,485.074 557.365,483.026 545.267,483.026 C525.824,483.026 520.068,491.934 517.244,491.934 C514.419,491.934 512.898,491.498 512.898,487.589 C512.898,483.681 516.591,481.832 516.591,479.117 C516.591,476.403 515.176,476.291 512.029,476.291 C503.882,476.291 501.276,485.199 493.998,485.199 C486.72,485.199 489.925,477.433 487.916,475.424 C485.908,473.414 479.66,472.924 479.66,472.924 C479.66,472.924 464.453,457.935 464.453,453.807 C464.453,449.678 477.07,443.912 477.07,438.617 C477.07,433.323 470.949,429.52 465.326,428.528 C459.701,427.535 455.236,425.386 447.129,420.423 C439.024,415.46 430.091,416.619 430.091,413.145 C430.091,409.671 447.129,407.023 447.129,400.407 C447.129,393.792 440.679,392.799 437.535,392.799 C434.391,392.799 429.595,394.122 429.595,394.122 C429.595,394.122 429.43,389.822 425.128,386.844 C420.828,383.866 413.881,384.859 413.881,380.392 C413.881,375.926 422.154,373.61 422.154,368.977 C422.154,364.345 419.505,363.02 416.197,363.02 C412.888,363.02 409.746,367.817 401.972,367.817 C394.197,367.817 412.722,348.635 412.722,344.498 C412.722,340.362 400.979,333.912 392.046,333.912 C383.113,333.912 373.024,338.545 373.024,338.545 L422.648,172.632 C422.648,172.632 437.218,200.594 462.609,234.91 L462.609,417.107 L474.756,417.107 L474.756,250.708 C484.734,263.195 495.947,276.056 508.275,288.385 C572.405,352.516 611.416,366.138 611.416,366.138 C611.416,366.138 611.151,369.766 611.309,373.215 C611.416,375.605 613.371,377.232 616.632,378.97 C619.89,380.708 627.819,387.552 627.819,390.919 C627.819,394.286 623.908,396.241 623.908,402.217 C623.908,408.192 632.38,416.008 635.095,418.831 C637.812,421.655 638.353,426.218 638.353,429.694 C638.353,433.17 636.183,434.038 632.816,434.038 Z M462.609,202.031 L462.609,207.682 C447.106,190.678 431.775,173.484 432.656,172.632 C433.502,171.811 448.01,186.609 462.609,202.031 Z M492.242,234.143 C507.875,252.349 526.525,274.348 535.263,289.187 C543.556,303.271 547.287,312.433 546.218,313.77 C545.15,315.107 539.539,312.167 533.392,304.151 C527.246,296.135 511.945,262.026 492.242,240.021 C489.478,236.935 482.742,229.641 474.756,220.949 L474.756,214.978 C482.981,223.818 489.825,231.327 492.242,234.143 Z M770.437,513.976 C770.437,502.033 774.96,500.044 774.96,492.262 C774.96,484.48 771.884,482.67 768.625,482.67 C765.369,482.67 765.189,486.109 759.759,482.852 L759.759,456.25 C759.759,456.25 755.236,451.183 747.635,451.183 C740.033,451.183 737.5,456.069 728.088,456.069 C723.205,456.069 720.669,451.727 720.669,448.468 C720.669,445.21 726.641,436.16 726.641,428.379 C726.641,420.599 722.298,418.426 717.232,418.426 C712.164,418.426 710.353,423.493 708.181,423.493 C706.01,423.493 704.201,421.321 704.201,419.15 C704.201,416.979 706.734,417.158 706.734,413.358 C706.734,409.558 704.381,407.387 701.487,407.387 C698.591,407.387 695.154,411.005 692.621,409.197 C690.085,407.387 693.163,403.767 693.163,399.605 C693.163,392.004 681.944,397.796 679.951,391.463 C678.689,387.447 683.933,381.689 683.933,374.089 C683.933,368.744 679.966,365.764 672.714,365.764 C669.273,365.764 659.501,370.468 654.617,360.335 L654.617,344.775 C654.617,344.775 650.636,338.984 643.396,338.984 C636.159,338.984 631.271,350.928 623.126,355.089 C614.983,359.247 612.45,359.247 612.45,359.247 L552.093,321.614 C552.093,321.614 555.334,292.907 484.078,219.106 C480.816,215.729 477.713,212.518 474.756,209.453 L474.756,97.394 L546.935,97.394 L546.935,85.246 L474.756,85.246 L474.756,0.886 L462.609,0.886 L462.609,85.246 L390.431,85.246 L390.431,97.394 L462.609,97.394 L462.609,196.874 C429.201,162.284 420.076,152.865 420.076,152.865 L367.078,325.374 C367.078,325.374 360.532,324.107 352.93,325.374 C345.329,326.642 333.504,335.933 333.504,335.933 L298.876,306.371 C298.876,306.371 294.23,311.016 294.23,318.407 C294.23,325.798 297.82,327.907 292.752,332.342 C287.685,336.777 281.773,333.61 271.849,333.61 C261.925,333.61 246.3,336.352 246.3,340.155 C246.3,343.956 256.012,350.078 260.658,352.19 C265.303,354.301 268.683,357.889 268.683,360.632 C268.683,363.376 242.922,372.246 242.922,387.66 C242.922,392.572 248.201,392.305 251.58,392.305 C254.958,392.305 267.416,389.349 273.116,389.349 C278.817,389.349 284.307,392.305 284.307,395.472 C284.307,400.328 250.946,397.163 250.946,410.887 C250.946,421.866 269.949,416.378 269.949,420.178 C269.949,423.978 244.4,429.68 244.4,448.261 C244.4,455.401 257.28,457.761 257.28,461.14 C257.28,464.519 238.488,466.842 238.488,476.343 C238.488,478.876 244.189,484.366 238.488,484.366 C232.787,484.366 229.831,480.567 222.229,480.567 C214.628,480.567 211.25,486.477 211.25,489.856 C211.25,493.235 213.572,493.657 213.572,495.558 C213.572,497.458 210.194,498.3 210.194,502.947 C210.194,510.126 223.285,510.761 223.285,515.406 C223.285,520.05 213.361,518.364 210.194,520.896 C207.026,523.429 209.139,528.285 207.238,530.185 C205.337,532.085 188.657,530.397 188.657,540.532 C188.657,544.371 190.135,546.233 190.135,546.233 L776.589,546.233 C776.589,546.233 784.914,540.035 784.914,535.692 C784.914,522.3 770.437,519.406 770.437,513.976 L770.437,513.976 Z" id="Fill-2" fill="#ffffff"></path>
        <path d="M3.931,556.688 L784.914,556.688" id="Stroke-3" stroke="#ffffff" stroke-width="4"></path>
        <path d="M24.149,626.559 C24.149,631.069 24.54,631.069 28.448,631.069 L37.306,631.069 C42.647,631.069 46.815,630.734 48.378,630.066 C49.811,629.398 50.854,628.563 51.635,624.221 L52.808,617.54 C53.459,616.538 55.673,616.538 56.194,617.54 C56.194,621.549 55.673,628.229 55.673,634.408 C55.673,640.42 56.194,646.767 56.194,650.608 C55.673,651.61 53.719,651.61 52.808,650.608 L51.505,644.095 C50.984,641.088 49.811,638.75 47.336,637.748 C45.513,637.08 42.256,636.913 37.306,636.913 L28.448,636.913 C24.54,636.913 24.149,637.08 24.149,641.422 L24.149,664.637 C24.149,682.172 24.41,684.678 32.096,685.513 L36.524,686.014 C37.306,686.682 37.045,689.688 36.264,690.189 C28.579,689.855 24.149,689.688 18.939,689.688 C13.207,689.688 8.778,689.855 2.656,690.189 C1.874,689.688 1.614,687.016 2.396,686.014 L5.652,685.513 C13.207,684.344 13.468,682.172 13.468,664.637 L13.468,604.514 C13.468,586.978 13.207,584.64 5.652,583.471 L3.568,583.137 C2.786,582.469 3.047,579.463 3.828,578.962 C9.299,579.296 13.729,579.463 18.939,579.463 L42.908,579.463 C51.245,579.463 58.8,579.463 60.493,578.962 C60.493,586.644 60.624,594.66 60.884,601.007 C60.493,602.009 58.669,602.51 57.758,601.508 C56.715,593.992 55.152,587.98 48.639,585.642 C45.773,584.807 41.475,584.64 36.003,584.64 L28.058,584.64 C24.149,584.64 24.149,584.974 24.149,591.321 L24.149,626.559" id="Fill-5" fill="#ffffff"></path>
        <path d="M86.772,628.563 C86.772,631.57 86.772,633.407 87.162,634.074 C87.553,634.575 89.507,634.909 96.15,634.909 C100.84,634.909 105.79,634.241 109.568,630.567 C113.085,627.06 116.081,621.215 116.081,609.859 C116.081,596.664 109.698,584.139 95.239,584.139 C87.162,584.139 86.772,584.807 86.772,589.484 L86.772,628.563 Z M76.09,604.681 C76.09,588.816 75.699,585.976 70.358,585.141 L66.19,584.473 C65.278,583.638 65.278,580.966 66.32,580.298 C73.615,579.463 82.603,578.962 95.369,578.962 C103.445,578.962 111.131,579.797 117.123,583.972 C123.376,588.147 127.935,595.662 127.935,607.353 C127.935,623.219 118.165,631.904 111.652,635.243 C111,636.245 111.652,637.915 112.303,639.251 C122.725,660.795 129.628,674.157 138.486,683.675 C140.701,686.181 143.958,688.018 147.475,688.352 C148.126,688.686 148.256,690.022 147.605,690.69 C146.433,691.191 144.348,691.525 141.874,691.525 C130.801,691.525 124.157,687.35 114.909,670.482 C111.521,664.303 106.181,652.78 102.143,645.264 C100.189,641.59 98.105,639.919 92.894,639.919 C87.032,639.919 86.772,640.086 86.772,643.594 L86.772,664.637 C86.772,682.172 87.032,684.176 94.587,685.513 L97.323,686.014 C98.105,686.849 97.844,689.688 97.063,690.189 C91.201,689.855 86.772,689.688 81.561,689.688 C76.09,689.688 71.4,689.855 65.278,690.189 C64.496,689.688 64.236,687.183 65.018,686.014 L68.274,685.513 C75.829,684.344 76.09,682.172 76.09,664.637 L76.09,604.681 L76.09,604.681 Z" id="Fill-6" fill="#ffffff"></path>
        <path d="M174.207,636.078 C173.165,639.919 173.295,640.086 176.942,640.086 L192.965,640.086 C196.742,640.086 197.003,639.418 195.831,634.909 L188.796,607.687 C187.754,603.679 186.582,599.17 185.8,597.165 L185.54,597.165 C185.149,598 183.846,602.009 182.413,607.019 L174.207,636.078 Z M199.999,650.942 C199.087,647.268 198.566,646.767 194.658,646.767 L174.988,646.767 C171.731,646.767 170.95,647.268 170.038,650.775 L165.479,668.311 C163.525,675.826 162.613,680.335 162.613,682.172 C162.613,684.176 163.265,685.179 166.391,685.513 L170.689,686.014 C171.602,686.849 171.602,689.521 170.429,690.189 C167.042,689.855 163.004,689.855 156.881,689.688 C152.583,689.688 147.893,690.022 144.376,690.189 C143.595,689.521 143.334,686.849 144.116,686.014 L148.415,685.513 C151.541,685.179 154.407,683.341 156.23,677.329 C158.575,669.647 162.222,658.791 167.693,640.086 L180.98,594.994 C182.804,588.983 183.586,585.809 183.195,583.137 C186.321,581.968 188.536,578.962 189.969,576.79 C190.75,576.79 191.662,577.124 191.923,578.294 C193.616,585.642 195.7,593.324 197.654,600.673 L215.5,667.81 C219.278,682.172 220.972,684.678 226.573,685.513 L230.09,686.014 C231.002,686.849 230.741,689.521 230.09,690.189 C224.749,689.855 220.189,689.688 214.328,689.688 C208.075,689.688 203.125,690.022 199.348,690.189 C198.306,689.521 198.175,686.849 199.087,686.014 L202.865,685.513 C205.601,685.179 207.424,684.176 207.424,682.506 C207.424,680.669 206.772,677.663 205.73,673.655 L199.999,650.942 L199.999,650.942 Z" id="Fill-7" fill="#ffffff"></path>
        <path d="M314.374,661.296 C314.374,666.307 314.374,686.181 314.765,690.523 C314.505,691.525 313.723,692.36 312.29,692.36 C310.727,689.521 306.949,683.675 295.616,667.142 L265.395,623.052 C261.878,617.874 253.02,604.18 250.284,600.506 L250.023,600.506 C249.503,602.51 249.372,606.351 249.372,611.362 L249.372,647.769 C249.372,655.618 249.633,677.329 251.717,682.339 C252.629,684.176 255.104,685.179 258.36,685.513 L262.398,686.014 C263.181,687.35 263.05,689.354 262.139,690.189 C256.276,689.855 251.717,689.688 246.897,689.688 C241.426,689.688 237.909,689.855 233.35,690.189 C232.438,689.354 232.308,687.016 233.089,686.014 L236.606,685.513 C239.603,685.179 241.687,684.009 242.338,682.172 C244.162,676.16 244.031,655.785 244.031,647.769 L244.031,599.504 C244.031,594.827 243.901,591.321 241.166,587.479 C239.342,585.141 236.216,583.972 233.089,583.471 L230.875,583.137 C230.093,582.135 230.093,579.63 231.136,578.962 C236.606,579.463 243.511,579.463 245.855,579.463 C247.939,579.463 250.154,579.296 251.848,578.962 C254.452,587.479 269.954,609.524 274.122,615.703 L286.758,633.907 C295.616,646.934 302.129,656.119 308.252,664.136 L308.513,664.136 C309.033,663.301 309.033,660.628 309.033,657.121 L309.033,621.382 C309.033,613.532 308.903,591.822 306.428,586.811 C305.646,585.308 303.563,584.306 298.352,583.471 L296.137,583.137 C295.226,582.135 295.355,579.463 296.397,578.962 C302.39,579.296 306.818,579.463 311.769,579.463 C317.37,579.463 320.757,579.296 325.187,578.962 C326.229,579.797 326.229,582.135 325.446,583.137 L323.623,583.471 C319.454,584.306 316.85,585.642 316.328,586.978 C314.113,592.99 314.374,613.699 314.374,621.382 L314.374,661.296" id="Fill-8" fill="#ffffff"></path>
        <path d="M344.967,590.987 C354.18,581.467 365.916,576.79 379.041,576.79 C385.855,576.79 395.449,578.628 401.38,580.799 C402.895,581.3 403.778,581.634 404.914,581.467 C405.04,585.308 405.67,595.829 406.68,606.017 C406.049,607.186 404.157,607.353 403.273,606.351 C401.38,594.994 395.701,581.968 377.4,581.968 C358.092,581.968 341.686,598.167 341.686,632.739 C341.686,667.81 358.47,687.183 379.167,687.183 C395.449,687.183 402.642,673.154 405.544,663.301 C406.428,662.465 408.321,662.799 408.826,663.969 C407.942,672.653 404.661,683.675 402.768,686.849 C401.254,687.183 399.74,687.851 398.352,688.519 C395.575,689.855 386.486,692.36 378.41,692.36 C367.052,692.36 356.199,689.354 346.987,681.17 C336.891,671.985 329.066,656.787 329.066,635.243 C329.066,616.705 335.377,600.84 344.967,590.987" id="Fill-9" fill="#ffffff"></path>
        <path d="M426.559,604.848 C426.559,587.145 426.298,584.306 418.613,583.471 L415.356,583.137 C414.575,582.469 414.835,579.463 415.617,578.962 C422.13,579.296 426.559,579.463 432.03,579.463 C437.241,579.463 441.669,579.296 448.183,578.962 C448.964,579.463 449.225,582.469 448.444,583.137 L445.187,583.471 C437.501,584.306 437.241,587.145 437.241,604.848 L437.241,664.303 C437.241,682.005 437.501,684.344 445.187,685.513 L448.444,686.014 C449.225,686.682 448.964,689.688 448.183,690.189 C441.669,689.855 437.241,689.688 432.03,689.688 C426.559,689.688 422.13,689.855 415.617,690.189 C414.835,689.688 414.575,687.016 415.356,686.014 L418.613,685.513 C426.298,684.344 426.559,682.005 426.559,664.303 L426.559,604.848" id="Fill-10" fill="#ffffff"></path>
        <path d="M484.018,692.36 C473.076,692.36 466.171,688.018 463.697,686.181 C462.133,682.506 460.44,670.649 460.179,662.799 C460.831,661.63 462.785,661.296 463.305,662.298 C465.259,670.816 470.6,687.183 485.711,687.183 C496.653,687.183 501.994,677.997 501.994,667.977 C501.994,660.628 500.822,652.446 491.312,644.596 L478.937,634.241 C472.424,628.73 464.869,619.21 464.869,605.516 C464.869,589.651 474.508,576.79 491.443,576.79 C495.481,576.79 500.17,577.626 503.557,578.962 C505.25,579.463 507.075,579.964 508.117,579.964 C509.289,583.972 510.461,593.324 510.461,600.339 C509.94,601.341 507.856,601.842 507.205,600.84 C505.511,592.824 501.994,581.968 489.489,581.968 C476.723,581.968 473.987,592.824 473.987,600.506 C473.987,610.193 480.24,617.039 485.06,621.048 L495.481,629.398 C503.687,635.911 511.764,645.598 511.764,661.463 C511.764,679.834 500.952,692.36 484.018,692.36" id="Fill-11" fill="#ffffff"></path>
        <path d="M540.799,590.987 C550.26,581.467 562.312,576.79 575.79,576.79 C582.788,576.79 592.636,578.628 598.727,580.799 C600.282,581.3 601.189,581.634 602.355,581.467 C602.485,585.308 603.132,595.829 604.169,606.017 C603.521,607.186 601.578,607.353 600.67,606.351 C598.727,594.994 592.895,581.968 574.105,581.968 C554.277,581.968 537.43,598.167 537.43,632.739 C537.43,667.81 554.666,687.183 575.918,687.183 C592.636,687.183 600.023,673.154 603.003,663.301 C603.911,662.465 605.854,662.799 606.373,663.969 C605.465,672.653 602.096,683.675 600.152,686.849 C598.597,687.183 597.042,687.851 595.617,688.519 C592.765,689.855 583.435,692.36 575.141,692.36 C563.478,692.36 552.333,689.354 542.874,681.17 C532.505,671.985 524.471,656.787 524.471,635.243 C524.471,616.705 530.951,600.84 540.799,590.987" id="Fill-12" fill="#ffffff"></path>
        <path d="M631.793,636.078 C630.751,639.919 630.881,640.086 634.529,640.086 L650.551,640.086 C654.329,640.086 654.589,639.418 653.417,634.909 L646.382,607.687 C645.34,603.679 644.168,599.17 643.386,597.165 L643.126,597.165 C642.735,598 641.433,602.009 640,607.019 L631.793,636.078 Z M657.585,650.942 C656.673,647.268 656.153,646.767 652.245,646.767 L632.575,646.767 C629.318,646.767 628.537,647.268 627.625,650.775 L623.065,668.311 C621.112,675.826 620.2,680.335 620.2,682.172 C620.2,684.176 620.851,685.179 623.977,685.513 L628.276,686.014 C629.188,686.849 629.188,689.521 628.015,690.189 C624.628,689.855 620.59,689.855 614.468,689.688 C610.169,689.688 605.48,690.022 601.962,690.189 C601.181,689.521 600.92,686.849 601.702,686.014 L606,685.513 C609.127,685.179 611.993,683.341 613.817,677.329 C616.162,669.647 619.809,658.791 625.28,640.086 L638.567,594.994 C640.39,588.983 641.172,585.809 640.782,583.137 C643.908,581.968 646.123,578.962 647.555,576.79 C648.336,576.79 649.249,577.124 649.509,578.294 C651.203,585.642 653.287,593.324 655.241,600.673 L673.086,667.81 C676.865,682.172 678.558,684.678 684.16,685.513 L687.676,686.014 C688.588,686.849 688.328,689.521 687.676,690.189 C682.335,689.855 677.776,689.688 671.915,689.688 C665.662,689.688 660.711,690.022 656.934,690.189 C655.892,689.521 655.762,686.849 656.673,686.014 L660.452,685.513 C663.187,685.179 665.01,684.176 665.01,682.506 C665.01,680.669 664.359,677.663 663.317,673.655 L657.585,650.942 L657.585,650.942 Z" id="Fill-13" fill="#ffffff"></path>
        <path d="M773.399,661.296 C773.399,666.307 773.399,686.181 773.79,690.523 C773.53,691.525 772.748,692.36 771.315,692.36 C769.751,689.521 765.974,683.675 754.641,667.142 L724.419,623.052 C720.903,617.874 712.044,604.18 709.309,600.506 L709.048,600.506 C708.528,602.51 708.397,606.351 708.397,611.362 L708.397,647.769 C708.397,655.618 708.658,677.329 710.742,682.339 C711.654,684.176 714.128,685.179 717.385,685.513 L721.423,686.014 C722.206,687.35 722.075,689.354 721.164,690.189 C715.301,689.855 710.742,689.688 705.922,689.688 C700.451,689.688 696.934,689.855 692.375,690.189 C691.462,689.354 691.333,687.016 692.114,686.014 L695.631,685.513 C698.627,685.179 700.711,684.009 701.363,682.172 C703.187,676.16 703.056,655.785 703.056,647.769 L703.056,599.504 C703.056,594.827 702.926,591.321 700.191,587.479 C698.367,585.141 695.241,583.972 692.114,583.471 L689.9,583.137 C689.118,582.135 689.118,579.63 690.161,578.962 C695.631,579.463 702.536,579.463 704.88,579.463 C706.964,579.463 709.179,579.296 710.873,578.962 C713.477,587.479 728.979,609.524 733.147,615.703 L745.783,633.907 C754.641,646.934 761.154,656.119 767.277,664.136 L767.538,664.136 C768.058,663.301 768.058,660.628 768.058,657.121 L768.058,621.382 C768.058,613.532 767.928,591.822 765.453,586.811 C764.671,585.308 762.587,584.306 757.376,583.471 L755.162,583.137 C754.25,582.135 754.38,579.463 755.422,578.962 C761.415,579.296 765.843,579.463 770.793,579.463 C776.395,579.463 779.782,579.296 784.211,578.962 C785.253,579.797 785.253,582.135 784.471,583.137 L782.648,583.471 C778.479,584.306 775.875,585.642 775.353,586.978 C773.138,592.99 773.399,613.699 773.399,621.382 L773.399,661.296" id="Fill-14" fill="#ffffff"></path>
        <path d="M75.604,750.382 C75.604,740.028 75.343,720.822 73.129,715.811 C72.217,713.807 69.872,712.638 66.616,712.304 L63.359,711.97 C62.578,710.801 62.838,708.63 63.62,707.962 C68.569,708.296 73.389,708.463 78.47,708.463 C83.941,708.463 87.458,708.296 92.148,707.962 C93.19,708.797 93.059,710.968 92.408,711.97 L89.282,712.304 C86.025,712.638 83.42,714.141 82.769,716.312 C80.815,721.824 80.945,741.03 80.945,750.382 L80.945,769.253 C80.945,783.783 79.121,799.148 71.826,809.168 C66.225,817.018 56.585,821.36 46.946,821.36 C37.958,821.36 28.969,819.189 22.586,812.174 C15.682,804.826 12.426,792.635 12.426,772.761 L12.426,733.347 C12.426,715.978 12.165,713.139 4.61,712.304 L1.353,711.97 C0.572,711.302 0.832,708.463 1.614,707.962 C8.127,708.296 12.556,708.463 17.767,708.463 C23.107,708.463 27.406,708.296 33.789,707.962 C34.571,708.463 34.831,711.302 34.049,711.97 L30.923,712.304 C23.368,713.139 23.107,715.978 23.107,733.347 L23.107,769.42 C23.107,796.309 29.621,814.012 49.551,814.012 C68.44,814.012 75.604,794.973 75.604,769.587 L75.604,750.382" id="Fill-15" fill="#ffffff"></path>
        <path d="M181.105,790.296 C181.105,795.307 181.105,815.181 181.497,819.523 C181.236,820.525 180.454,821.36 179.021,821.36 C177.458,818.521 173.681,812.675 162.348,796.142 L132.126,752.052 C128.609,746.874 119.751,733.18 117.016,729.506 L116.755,729.506 C116.234,731.51 116.104,735.351 116.104,740.362 L116.104,776.769 C116.104,784.618 116.364,806.329 118.449,811.339 C119.36,813.176 121.835,814.179 125.092,814.513 L129.13,815.014 C129.912,816.35 129.781,818.354 128.87,819.189 C123.008,818.855 118.448,818.688 113.629,818.688 C108.158,818.688 104.641,818.855 100.081,819.189 C99.169,818.354 99.039,816.016 99.821,815.014 L103.338,814.513 C106.334,814.179 108.418,813.009 109.069,811.172 C110.893,805.16 110.763,784.785 110.763,776.769 L110.763,728.504 C110.763,723.827 110.633,720.321 107.897,716.479 C106.073,714.141 102.947,712.972 99.821,712.471 L97.606,712.137 C96.825,711.135 96.825,708.63 97.867,707.962 C103.338,708.463 110.242,708.463 112.586,708.463 C114.671,708.463 116.885,708.296 118.579,707.962 C121.184,716.479 136.686,738.524 140.854,744.703 L153.49,762.907 C162.348,775.934 168.861,785.119 174.983,793.136 L175.244,793.136 C175.765,792.301 175.765,789.628 175.765,786.121 L175.765,750.382 C175.765,742.532 175.635,720.822 173.16,715.811 C172.378,714.308 170.293,713.306 165.083,712.471 L162.869,712.137 C161.957,711.135 162.087,708.463 163.129,707.962 C169.121,708.296 173.55,708.463 178.5,708.463 C184.102,708.463 187.488,708.296 191.917,707.962 C192.959,708.797 192.959,711.135 192.178,712.137 L190.354,712.471 C186.186,713.306 183.581,714.642 183.06,715.978 C180.845,721.99 181.105,742.699 181.105,750.382 L181.105,790.296" id="Fill-16" fill="#ffffff"></path>
        <path d="M210.518,733.848 C210.518,716.145 210.257,713.306 202.571,712.471 L199.314,712.137 C198.533,711.469 198.794,708.463 199.575,707.962 C206.089,708.296 210.518,708.463 215.988,708.463 C221.199,708.463 225.628,708.296 232.142,707.962 C232.923,708.463 233.184,711.469 232.402,712.137 L229.146,712.471 C221.46,713.306 221.199,716.145 221.199,733.848 L221.199,793.303 C221.199,811.005 221.46,813.344 229.146,814.513 L232.402,815.014 C233.184,815.682 232.923,818.688 232.142,819.189 C225.628,818.855 221.199,818.688 215.988,818.688 C210.518,818.688 206.089,818.855 199.575,819.189 C198.794,818.688 198.533,816.016 199.314,815.014 L202.571,814.513 C210.257,813.344 210.518,811.005 210.518,793.303 L210.518,733.848" id="Fill-17" fill="#ffffff"></path>
        <path d="M254.882,726.165 C251.886,716.813 249.932,713.306 244.331,712.471 L241.986,712.137 C241.075,711.135 241.205,708.797 242.247,707.962 C246.025,708.296 250.193,708.463 255.794,708.463 C261.526,708.463 266.085,708.296 271.556,707.962 C272.468,708.63 272.729,711.135 271.817,712.137 L269.863,712.471 C264.913,713.306 263.871,714.308 263.741,715.644 C264,717.315 266.215,726.332 270.253,739.026 C276.246,758.398 282.238,777.604 288.751,796.643 C292.79,785.62 298.391,768.418 301.256,759.567 C305.165,748.21 311.157,729.339 313.371,722.157 C314.414,718.651 314.543,716.813 314.543,715.644 C314.543,714.475 313.241,713.139 308.681,712.471 L306.336,712.137 C305.425,711.135 305.685,708.63 306.597,707.962 C310.245,708.296 315.195,708.463 320.145,708.463 C324.444,708.463 328.482,708.296 332.781,707.962 C333.692,708.63 333.692,711.302 333.041,712.137 L329.133,712.471 C326.006,712.805 324.052,714.809 322.359,718.317 C318.711,726.165 313.631,739.694 307.77,756.728 L300.736,777.27 C295.525,792.635 289.403,812.007 287.188,820.859 C286.797,821.193 286.276,821.36 285.755,821.36 C285.104,821.36 284.453,821.193 283.801,820.859 C282.368,813.845 280.154,805.661 277.809,798.647 L254.882,726.165" id="Fill-18" fill="#ffffff"></path>
        <path d="M349.129,733.514 C349.129,716.145 348.868,713.64 341.183,712.471 L339.099,712.137 C338.317,711.469 338.577,708.463 339.359,707.962 C344.96,708.296 349.39,708.463 354.73,708.463 L379.22,708.463 C387.557,708.463 395.245,708.463 396.808,707.962 C397.589,710.801 398.372,722.825 398.892,730.174 C398.372,731.176 396.287,731.51 395.635,730.508 C393.682,722.658 392.508,716.813 385.733,714.642 C382.998,713.807 378.829,713.64 373.098,713.64 L363.719,713.64 C359.811,713.64 359.811,713.974 359.811,720.321 L359.811,753.722 C359.811,758.398 360.201,758.398 364.109,758.398 L371.665,758.398 C377.136,758.398 381.174,758.064 382.737,757.396 C384.3,756.728 385.212,755.726 385.863,751.551 L386.905,744.703 C387.557,743.701 389.771,743.701 390.292,744.87 C390.292,748.878 389.771,755.392 389.771,761.739 C389.771,767.75 390.292,774.097 390.292,777.771 C389.771,778.94 387.557,778.94 386.905,777.938 L385.733,771.425 C385.212,768.418 384.3,765.913 381.695,765.078 C379.871,764.41 376.745,764.243 371.665,764.243 L364.109,764.243 C360.201,764.243 359.811,764.41 359.811,768.752 L359.811,792.301 C359.811,801.152 360.201,806.83 362.285,809.669 C363.849,811.673 366.584,813.511 378.048,813.511 C388.078,813.511 391.856,812.842 394.724,811.005 C397.069,809.335 400.585,803.49 403.972,794.806 C404.884,793.971 406.708,794.472 407.229,795.975 C406.317,801.82 403.061,814.68 401.368,819.189 C389.641,818.855 378.048,818.688 366.454,818.688 L354.73,818.688 C349.129,818.688 344.7,818.855 337.015,819.189 C336.232,818.688 335.973,816.016 336.754,815.014 L341.053,814.513 C348.478,813.678 349.129,811.172 349.129,793.637 L349.129,733.514" id="Fill-19" fill="#ffffff"></path>
        <path d="M434.83,757.563 C434.83,760.57 434.83,762.407 435.22,763.074 C435.611,763.575 437.565,763.909 444.208,763.909 C448.898,763.909 453.848,763.241 457.625,759.567 C461.143,756.06 464.139,750.215 464.139,738.859 C464.139,725.664 457.756,713.139 443.296,713.139 C435.22,713.139 434.83,713.807 434.83,718.484 L434.83,757.563 Z M424.148,733.681 C424.148,717.816 423.757,714.976 418.417,714.141 L414.248,713.473 C413.336,712.638 413.336,709.966 414.378,709.298 C421.673,708.463 430.662,707.962 443.427,707.962 C451.503,707.962 459.189,708.797 465.181,712.972 C471.434,717.147 475.993,724.662 475.993,736.353 C475.993,752.219 466.223,760.904 459.71,764.243 C459.059,765.245 459.71,766.915 460.362,768.251 C470.783,789.795 477.687,803.157 486.544,812.675 C488.759,815.181 492.016,817.018 495.533,817.352 C496.184,817.686 496.314,819.022 495.663,819.69 C494.491,820.191 492.407,820.525 489.931,820.525 C478.859,820.525 472.215,816.35 462.966,799.482 C459.58,793.303 454.239,781.78 450.201,774.264 C448.247,770.59 446.163,768.919 440.952,768.919 C435.09,768.919 434.83,769.086 434.83,772.594 L434.83,793.637 C434.83,811.172 435.09,813.176 442.645,814.513 L445.381,815.014 C446.163,815.849 445.902,818.688 445.121,819.189 C439.258,818.855 434.83,818.688 429.619,818.688 C424.148,818.688 419.458,818.855 413.336,819.189 C412.554,818.688 412.293,816.183 413.076,815.014 L416.333,814.513 C423.887,813.344 424.148,811.172 424.148,793.637 L424.148,733.681 L424.148,733.681 Z" id="Fill-20" fill="#ffffff"></path>
        <path d="M520.334,821.36 C509.392,821.36 502.488,817.018 500.013,815.181 C498.45,811.506 496.756,799.649 496.496,791.799 C497.147,790.63 499.101,790.296 499.622,791.298 C501.576,799.816 506.917,816.183 522.028,816.183 C532.969,816.183 538.31,806.997 538.31,796.977 C538.31,789.628 537.138,781.446 527.628,773.596 L515.253,763.241 C508.741,757.73 501.185,748.21 501.185,734.516 C501.185,718.651 510.825,705.79 527.759,705.79 C531.797,705.79 536.487,706.626 539.874,707.962 C541.567,708.463 543.391,708.964 544.433,708.964 C545.605,712.972 546.778,722.324 546.778,729.339 C546.256,730.341 544.172,730.842 543.521,729.84 C541.828,721.824 538.31,710.968 525.805,710.968 C513.04,710.968 510.303,721.824 510.303,729.506 C510.303,739.193 516.556,746.039 521.376,750.048 L531.797,758.398 C540.003,764.911 548.081,774.598 548.081,790.463 C548.081,808.834 537.268,821.36 520.334,821.36" id="Fill-21" fill="#ffffff"></path>
        <path d="M573.349,733.848 C573.349,716.145 573.088,713.306 565.403,712.471 L562.146,712.137 C561.365,711.469 561.625,708.463 562.407,707.962 C568.92,708.296 573.349,708.463 578.82,708.463 C584.031,708.463 588.459,708.296 594.973,707.962 C595.754,708.463 596.015,711.469 595.234,712.137 L591.977,712.471 C584.292,713.306 584.031,716.145 584.031,733.848 L584.031,793.303 C584.031,811.005 584.292,813.344 591.977,814.513 L595.234,815.014 C596.015,815.682 595.754,818.688 594.973,819.189 C588.459,818.855 584.031,818.688 578.82,818.688 C573.349,818.688 568.92,818.855 562.407,819.189 C561.625,818.688 561.365,816.016 562.146,815.014 L565.403,814.513 C573.088,813.344 573.349,811.005 573.349,793.303 L573.349,733.848" id="Fill-22" fill="#ffffff"></path>
        <path d="M654.062,793.637 C654.062,811.172 654.323,813.511 661.877,814.513 L666.046,815.014 C666.828,815.682 666.567,818.688 665.786,819.189 C658.361,818.855 653.931,818.688 648.721,818.688 C643.51,818.688 638.951,818.855 630.614,819.189 C629.833,818.688 629.572,815.849 630.614,815.014 L635.304,814.513 C642.729,813.678 643.38,811.172 643.38,793.637 L643.38,718.985 C643.38,713.807 643.38,713.64 639.472,713.64 L632.308,713.64 C626.707,713.64 619.542,713.974 616.285,717.816 C613.159,721.49 611.856,725.163 610.423,729.339 C609.381,730.341 607.557,729.506 607.037,728.17 C609.121,720.655 611.075,709.966 611.987,703.285 C612.377,702.951 614.071,702.784 614.461,703.285 C615.243,708.63 619.542,708.463 625.534,708.463 L678.291,708.463 C685.326,708.463 686.498,708.129 688.452,703.786 C689.103,703.452 690.536,703.619 690.796,704.287 C689.364,711.135 688.452,724.662 688.842,729.673 C688.321,731.009 686.107,731.009 685.456,730.007 C685.065,725.831 684.153,719.653 682.199,717.816 C679.203,714.976 674.252,713.64 667.088,713.64 L657.839,713.64 C653.931,713.64 654.062,713.807 654.062,719.319 L654.062,793.637" id="Fill-23" fill="#ffffff"></path>
        <g id="Group-27" transform="translate(0.000000, 707.000000)">
            <mask id="mask-2" fill="white">
                <use xlink:href="#path-1"></use>
            </mask>
            <g id="Clip-25"></g>
            <path d="M743.564,86.303 C743.564,104.172 744.346,106.845 751.38,107.513 L756.331,108.014 C757.112,109.016 756.851,111.688 756.07,112.189 C747.994,111.855 743.564,111.688 738.354,111.688 C732.882,111.688 728.193,111.855 721.289,112.189 C720.507,111.688 720.247,109.016 721.029,108.014 L725.067,107.513 C732.622,106.511 732.882,104.172 732.882,86.303 L732.882,77.785 C732.882,68.6 732.492,66.429 728.714,57.076 L713.343,18.664 C708.914,7.642 706.959,6.807 703.052,5.972 L699.405,5.137 C698.623,3.968 698.753,1.63 699.666,0.962 C703.833,1.296 708.523,1.463 714.776,1.463 C720.768,1.463 725.458,1.296 728.714,0.962 C729.886,1.463 729.886,4.135 729.105,5.137 L727.412,5.471 C722.852,6.473 721.94,7.141 721.94,8.477 C721.94,10.147 725.328,19.666 725.979,21.337 C730.798,33.696 735.618,46.889 740.699,58.412 C744.737,49.561 749.036,39.874 752.943,30.188 C756.59,21.504 761.411,10.147 761.411,8.143 C761.411,7.141 759.066,5.972 755.939,5.471 L753.594,5.137 C752.683,3.968 752.813,1.63 753.855,0.962 C758.544,1.296 762.322,1.463 766.361,1.463 C770.399,1.463 774.046,1.296 778.475,0.962 C779.517,1.797 779.647,4.135 778.736,5.137 L775.088,5.972 C768.314,7.308 764.407,17.996 757.893,32.36 L749.687,50.563 C743.825,63.088 743.564,64.759 743.564,77.618 L743.564,86.303" id="Fill-24" fill="#ffffff" mask="url(#mask-2)"></path>
            <path d="M42.031,181.923 C42.031,168.394 36.942,153.797 23.629,153.797 C16.38,153.797 6.971,159.619 6.971,177.577 C6.971,189.713 11.989,205.457 25.72,205.457 C34.085,205.457 42.031,198.077 42.031,181.923 Z M0,180.201 C0,163.801 10.456,151.255 24.815,151.255 C40.915,151.255 49.001,164.949 49.001,179.381 C49.001,195.946 38.267,208 24.815,208 C9.34,208 0,194.961 0,180.201 L0,180.201 Z" id="Fill-26" fill="#ffffff" mask="url(#mask-2)"></path>
        </g>
        <path d="M77.158,882.692 C77.158,884.906 77.368,884.906 79.459,884.906 L84.198,884.906 C87.056,884.906 89.287,884.741 90.123,884.413 C90.89,884.085 91.447,883.675 91.866,881.543 L92.493,878.264 C92.841,877.772 94.026,877.772 94.305,878.264 C94.305,880.232 94.026,883.512 94.026,886.545 C94.026,889.497 94.305,892.614 94.305,894.499 C94.026,894.991 92.981,894.991 92.493,894.499 L91.796,891.302 C91.517,889.825 90.89,888.678 89.565,888.186 C88.59,887.858 86.847,887.776 84.198,887.776 L79.459,887.776 C77.368,887.776 77.158,887.858 77.158,889.99 L77.158,901.388 C77.158,909.997 77.298,911.228 81.41,911.638 L83.78,911.884 C84.198,912.212 84.059,913.688 83.641,913.934 C79.528,913.77 77.158,913.688 74.37,913.688 C71.304,913.688 68.934,913.77 65.658,913.934 C65.239,913.688 65.1,912.375 65.518,911.884 L67.261,911.638 C71.304,911.064 71.443,909.997 71.443,901.388 L71.443,871.867 C71.443,863.257 71.304,862.11 67.261,861.535 L66.146,861.371 C65.728,861.043 65.867,859.568 66.285,859.322 C69.212,859.486 71.582,859.568 74.37,859.568 L87.195,859.568 C91.656,859.568 95.699,859.568 96.606,859.322 C96.606,863.093 96.675,867.03 96.815,870.146 C96.606,870.637 95.629,870.883 95.142,870.391 C94.584,866.701 93.748,863.749 90.263,862.601 C88.729,862.192 86.429,862.11 83.501,862.11 L79.25,862.11 C77.158,862.11 77.158,862.274 77.158,865.389 L77.158,882.692" id="Fill-28" fill="#ffffff"></path>
        <path d="M168.256,915 C162.401,915 158.707,912.867 157.382,911.966 C156.546,910.161 155.64,904.34 155.5,900.486 C155.849,899.911 156.895,899.747 157.173,900.24 C158.219,904.422 161.077,912.457 169.162,912.457 C175.017,912.457 177.875,907.948 177.875,903.028 C177.875,899.419 177.248,895.402 172.159,891.547 L165.538,886.463 C162.052,883.757 158.01,879.083 158.01,872.36 C158.01,864.57 163.167,858.255 172.229,858.255 C174.39,858.255 176.899,858.665 178.711,859.322 C179.617,859.568 180.593,859.814 181.151,859.814 C181.778,861.782 182.405,866.373 182.405,869.818 C182.126,870.31 181.011,870.555 180.663,870.064 C179.757,866.127 177.875,860.797 171.184,860.797 C164.353,860.797 162.889,866.127 162.889,869.9 C162.889,874.656 166.234,878.018 168.813,879.986 L174.39,884.085 C178.781,887.283 183.103,892.039 183.103,899.829 C183.103,908.85 177.317,915 168.256,915" id="Fill-29" fill="#ffffff"></path>
        <path d="M225.479,901.388 C225.479,909.997 225.619,911.146 229.661,911.638 L231.892,911.884 C232.311,912.212 232.171,913.688 231.753,913.934 C227.779,913.77 225.41,913.688 222.622,913.688 C219.834,913.688 217.394,913.77 212.933,913.934 C212.515,913.688 212.376,912.294 212.933,911.884 L215.442,911.638 C219.415,911.228 219.764,909.997 219.764,901.388 L219.764,864.734 C219.764,862.192 219.764,862.11 217.673,862.11 L213.839,862.11 C210.842,862.11 207.009,862.274 205.266,864.159 C203.593,865.963 202.896,867.768 202.129,869.818 C201.571,870.31 200.596,869.9 200.317,869.243 C201.433,865.553 202.478,860.305 202.966,857.026 C203.175,856.862 204.081,856.78 204.29,857.026 C204.708,859.65 207.009,859.568 210.215,859.568 L238.444,859.568 C242.208,859.568 242.835,859.404 243.881,857.272 C244.229,857.108 244.996,857.19 245.136,857.517 C244.369,860.879 243.881,867.522 244.09,869.982 C243.812,870.637 242.626,870.637 242.277,870.146 C242.068,868.095 241.581,865.062 240.535,864.159 C238.932,862.765 236.283,862.11 232.45,862.11 L227.501,862.11 C225.41,862.11 225.479,862.192 225.479,864.898 L225.479,901.388" id="Fill-30" fill="#ffffff"></path>
        <path d="M267.856,871.867 C267.856,863.339 267.717,862.11 263.604,861.535 L262.489,861.371 C262.071,861.043 262.211,859.568 262.629,859.322 C265.626,859.486 267.996,859.568 270.854,859.568 L283.958,859.568 C288.419,859.568 292.531,859.568 293.367,859.322 C293.786,860.715 294.204,866.619 294.482,870.228 C294.204,870.719 293.089,870.883 292.74,870.391 C291.694,866.537 291.067,863.667 287.442,862.601 C285.979,862.192 283.749,862.11 280.682,862.11 L275.663,862.11 C273.572,862.11 273.572,862.274 273.572,865.389 L273.572,881.789 C273.572,884.085 273.781,884.085 275.872,884.085 L279.915,884.085 C282.843,884.085 285.003,883.921 285.84,883.593 C286.676,883.266 287.164,882.774 287.513,880.724 L288.07,877.362 C288.419,876.869 289.604,876.869 289.882,877.444 C289.882,879.411 289.604,882.61 289.604,885.726 C289.604,888.678 289.882,891.793 289.882,893.598 C289.604,894.171 288.419,894.171 288.07,893.68 L287.442,890.482 C287.164,889.005 286.676,887.776 285.282,887.365 C284.306,887.037 282.634,886.955 279.915,886.955 L275.872,886.955 C273.781,886.955 273.572,887.037 273.572,889.169 L273.572,900.732 C273.572,905.077 273.781,907.865 274.896,909.26 C275.732,910.243 277.196,911.146 283.33,911.146 C288.697,911.146 290.719,910.818 292.252,909.915 C293.507,909.096 295.389,906.226 297.201,901.961 C297.688,901.552 298.665,901.798 298.943,902.535 C298.456,905.406 296.713,911.72 295.807,913.934 C289.534,913.77 283.33,913.688 277.127,913.688 L270.854,913.688 C267.856,913.688 265.486,913.77 261.374,913.934 C260.956,913.688 260.816,912.375 261.234,911.884 L263.535,911.638 C267.508,911.228 267.856,909.997 267.856,901.388 L267.856,871.867" id="Fill-31" fill="#ffffff"></path>
        <path d="M354.912,880.15 C354.912,875.066 354.772,865.635 353.588,863.175 C353.1,862.192 351.845,861.617 350.103,861.453 L348.36,861.289 C347.941,860.715 348.081,859.65 348.499,859.322 C351.148,859.486 353.727,859.568 356.445,859.568 C359.373,859.568 361.255,859.486 363.765,859.322 C364.321,859.732 364.252,860.797 363.903,861.289 L362.23,861.453 C360.488,861.617 359.094,862.356 358.745,863.421 C357.7,866.127 357.77,875.558 357.77,880.15 L357.77,889.415 C357.77,896.55 356.794,904.094 352.891,909.014 C349.894,912.867 344.735,915 339.577,915 C334.769,915 329.959,913.934 326.543,910.49 C322.849,906.882 321.106,900.896 321.106,891.138 L321.106,871.785 C321.106,863.257 320.967,861.864 316.925,861.453 L315.182,861.289 C314.764,860.961 314.903,859.568 315.321,859.322 C318.807,859.486 321.176,859.568 323.964,859.568 C326.822,859.568 329.122,859.486 332.538,859.322 C332.956,859.568 333.095,860.961 332.677,861.289 L331.004,861.453 C326.962,861.864 326.822,863.257 326.822,871.785 L326.822,889.497 C326.822,902.699 330.308,911.392 340.972,911.392 C351.078,911.392 354.912,902.043 354.912,889.579 L354.912,880.15" id="Fill-32" fill="#ffffff"></path>
        <path d="M392.479,900.157 C392.479,903.11 392.618,907.291 393.943,909.096 C395.268,910.982 397.359,911.392 399.45,911.392 C405.654,911.392 410.393,908.112 410.393,899.911 C410.393,893.434 407.605,885.89 396.523,885.89 C392.758,885.89 392.479,886.381 392.479,888.022 L392.479,900.157 Z M392.479,881.133 C392.479,883.43 392.549,883.593 396.104,883.43 C403.214,883.102 407.047,880.642 407.047,872.934 C407.047,864.898 401.959,861.864 396.662,861.864 C395.128,861.864 394.082,862.028 393.455,862.356 C392.758,862.601 392.479,863.011 392.479,864.488 L392.479,881.133 Z M386.764,870.228 C386.764,864.159 386.485,862.683 383.349,862.274 L381.118,862.028 C380.561,861.535 380.63,860.305 381.188,859.977 C384.951,859.568 389.691,859.322 396.174,859.322 C400.565,859.322 404.748,859.732 407.884,861.617 C410.881,863.339 413.181,866.619 413.181,871.867 C413.181,877.772 410.253,880.806 406.072,883.102 C406.072,883.921 406.629,884.167 407.396,884.331 C411.16,885.152 416.736,889.251 416.736,898.026 C416.736,907.537 410.742,913.934 398.195,913.934 C396.174,913.934 392.758,913.688 389.831,913.688 C386.764,913.688 384.394,913.852 381.814,913.934 C381.396,913.688 381.257,912.375 381.676,911.884 L382.93,911.638 C386.624,910.982 386.764,909.997 386.764,901.388 L386.764,870.228 L386.764,870.228 Z" id="Fill-33" fill="#ffffff"></path>
        <path d="M442.036,871.867 C442.036,863.339 441.896,862.11 437.784,861.535 L436.668,861.371 C436.25,861.043 436.39,859.568 436.808,859.322 C439.805,859.486 442.175,859.568 445.033,859.568 L458.137,859.568 C462.598,859.568 466.71,859.568 467.546,859.322 C467.964,860.715 468.383,866.619 468.662,870.228 C468.383,870.719 467.268,870.883 466.919,870.391 C465.874,866.537 465.247,863.667 461.622,862.601 C460.158,862.192 457.927,862.11 454.861,862.11 L449.842,862.11 C447.751,862.11 447.751,862.274 447.751,865.389 L447.751,881.789 C447.751,884.085 447.96,884.085 450.051,884.085 L454.094,884.085 C457.022,884.085 459.182,883.921 460.019,883.593 C460.855,883.266 461.343,882.774 461.692,880.724 L462.25,877.362 C462.598,876.869 463.783,876.869 464.061,877.444 C464.061,879.411 463.783,882.61 463.783,885.726 C463.783,888.678 464.061,891.793 464.062,893.598 C463.783,894.171 462.598,894.171 462.25,893.68 L461.622,890.482 C461.343,889.005 460.855,887.776 459.461,887.365 C458.486,887.037 456.812,886.955 454.094,886.955 L450.051,886.955 C447.96,886.955 447.751,887.037 447.751,889.169 L447.751,900.732 C447.751,905.077 447.96,907.865 449.076,909.26 C449.912,910.243 451.375,911.146 457.509,911.146 C462.876,911.146 464.898,910.818 466.431,909.915 C467.686,909.096 469.568,906.226 471.38,901.961 C471.869,901.552 472.844,901.798 473.123,902.535 C472.635,905.406 470.892,911.72 469.986,913.934 C463.713,913.77 457.509,913.688 451.306,913.688 L445.033,913.688 C442.036,913.688 439.666,913.77 435.553,913.934 C435.135,913.688 434.996,912.375 435.414,911.884 L437.714,911.638 C441.687,911.228 442.036,909.997 442.036,901.388 L442.036,871.867" id="Fill-34" fill="#ffffff"></path>
        <path d="M533.344,899.747 C533.344,902.207 533.344,911.966 533.553,914.098 C533.414,914.59 532.996,915 532.229,915 C531.392,913.606 529.371,910.736 523.307,902.617 L507.136,880.969 C505.254,878.427 500.514,871.703 499.05,869.9 L498.912,869.9 C498.632,870.883 498.563,872.77 498.563,875.23 L498.563,893.106 C498.563,896.959 498.702,907.619 499.817,910.079 C500.305,910.982 501.629,911.474 503.373,911.638 L505.533,911.884 C505.951,912.539 505.881,913.524 505.393,913.934 C502.257,913.77 499.817,913.688 497.238,913.688 C494.311,913.688 492.429,913.77 489.99,913.934 C489.501,913.524 489.431,912.375 489.85,911.884 L491.732,911.638 C493.335,911.474 494.451,910.9 494.798,909.997 C495.775,907.046 495.705,897.041 495.705,893.106 L495.705,869.407 C495.705,867.112 495.635,865.389 494.171,863.503 C493.196,862.356 491.523,861.782 489.85,861.535 L488.665,861.371 C488.247,860.879 488.247,859.65 488.804,859.322 C491.732,859.568 495.426,859.568 496.681,859.568 C497.796,859.568 498.981,859.486 499.887,859.322 C501.281,863.503 509.576,874.327 511.806,877.362 L518.567,886.299 C523.307,892.696 526.792,897.205 530.068,901.142 L530.208,901.142 C530.486,900.732 530.486,899.419 530.486,897.698 L530.486,880.15 C530.486,876.295 530.417,865.635 529.092,863.175 C528.674,862.438 527.559,861.946 524.771,861.535 L523.585,861.371 C523.098,860.879 523.167,859.568 523.725,859.322 C526.931,859.486 529.301,859.568 531.95,859.568 C534.947,859.568 536.759,859.486 539.129,859.322 C539.687,859.732 539.687,860.879 539.269,861.371 L538.292,861.535 C536.062,861.946 534.668,862.601 534.389,863.257 C533.205,866.209 533.344,876.377 533.344,880.15 L533.344,899.747" id="Fill-35" fill="#ffffff"></path>
        <path d="M561.57,868.259 C559.967,863.667 558.921,861.946 555.924,861.535 L554.669,861.371 C554.182,860.879 554.251,859.732 554.809,859.322 C556.831,859.486 559.061,859.568 562.058,859.568 C565.125,859.568 567.565,859.486 570.492,859.322 C570.98,859.65 571.12,860.879 570.631,861.371 L569.586,861.535 C566.937,861.946 566.379,862.438 566.31,863.093 C566.45,863.913 567.634,868.341 569.795,874.574 C573.001,884.085 576.208,893.516 579.693,902.864 C581.854,897.451 584.851,889.005 586.384,884.659 C588.475,879.083 591.681,869.818 592.867,866.291 C593.424,864.57 593.494,863.667 593.494,863.093 C593.494,862.52 592.796,861.864 590.357,861.535 L589.103,861.371 C588.615,860.879 588.754,859.65 589.242,859.322 C591.194,859.486 593.842,859.568 596.491,859.568 C598.792,859.568 600.952,859.486 603.252,859.322 C603.74,859.65 603.74,860.961 603.392,861.371 L601.3,861.535 C599.627,861.699 598.583,862.683 597.676,864.406 C595.724,868.259 593.006,874.902 589.87,883.266 L586.105,893.352 C583.318,900.896 580.042,910.407 578.857,914.754 C578.647,914.918 578.369,915 578.089,915 C577.742,915 577.393,914.918 577.044,914.754 C576.278,911.31 575.092,907.291 573.837,903.848 L561.57,868.259" id="Fill-36" fill="#ffffff"></path>
        <path d="M626.622,872.032 C626.622,863.339 626.482,861.946 622.37,861.535 L620.627,861.371 C620.208,861.043 620.348,859.568 620.767,859.322 C624.251,859.486 626.622,859.568 629.549,859.568 C632.337,859.568 634.707,859.486 638.192,859.322 C638.611,859.568 638.75,861.043 638.332,861.371 L636.589,861.535 C632.476,861.946 632.337,863.339 632.337,872.032 L632.337,901.224 C632.337,909.915 632.476,911.064 636.589,911.638 L638.332,911.884 C638.75,912.212 638.611,913.688 638.192,913.934 C634.707,913.77 632.337,913.688 629.549,913.688 C626.622,913.688 624.251,913.77 620.767,913.934 C620.348,913.688 620.208,912.375 620.627,911.884 L622.37,911.638 C626.482,911.064 626.622,909.915 626.622,901.224 L626.622,872.032" id="Fill-37" fill="#ffffff"></path>
        <path d="M660.405,871.867 C660.405,863.257 660.265,861.946 655.875,861.535 L654.131,861.371 C653.713,861.043 653.853,859.568 654.271,859.322 C658.174,859.486 660.544,859.568 663.333,859.568 C666.05,859.568 668.42,859.486 671.906,859.322 C672.324,859.568 672.463,861.043 672.045,861.371 L670.373,861.535 C666.259,861.946 666.121,863.257 666.121,871.867 L666.121,900.404 C666.121,905.57 666.33,907.701 667.584,909.26 C668.351,910.161 669.675,911.146 675.181,911.146 C681.106,911.146 682.57,910.818 683.685,910.079 C685.08,909.096 686.892,906.144 688.286,901.961 C688.704,901.552 690.028,901.879 690.028,902.453 C690.028,903.356 688.077,911.72 687.101,913.934 C683.546,913.77 676.924,913.688 669.745,913.688 L663.333,913.688 C660.405,913.688 658.174,913.77 654.271,913.934 C653.853,913.688 653.713,912.375 654.131,911.884 L656.222,911.638 C660.265,911.146 660.405,909.997 660.405,901.388 L660.405,871.867" id="Fill-38" fill="#ffffff"></path>
        <path d="M712.052,871.867 C712.052,863.257 711.913,861.946 707.522,861.535 L705.779,861.371 C705.361,861.043 705.5,859.568 705.918,859.322 C709.822,859.486 712.192,859.568 714.98,859.568 C717.698,859.568 720.068,859.486 723.553,859.322 C723.971,859.568 724.111,861.043 723.693,861.371 L722.02,861.535 C717.908,861.946 717.768,863.257 717.768,871.867 L717.768,900.404 C717.768,905.57 717.977,907.701 719.232,909.26 C719.999,910.161 721.323,911.146 726.83,911.146 C732.753,911.146 734.217,910.818 735.333,910.079 C736.727,909.096 738.539,906.144 739.933,901.961 C740.351,901.552 741.675,901.879 741.675,902.453 C741.675,903.356 739.724,911.72 738.749,913.934 C735.193,913.77 728.572,913.688 721.392,913.688 L714.98,913.688 C712.052,913.688 709.822,913.77 705.918,913.934 C705.5,913.688 705.361,912.375 705.779,911.884 L707.871,911.638 C711.913,911.146 712.052,909.997 712.052,901.388 L712.052,871.867" id="Fill-39" fill="#ffffff"></path>
        <path d="M763.699,871.867 C763.699,863.339 763.559,862.11 759.447,861.535 L758.332,861.371 C757.914,861.043 758.053,859.568 758.471,859.322 C761.468,859.486 763.838,859.568 766.696,859.568 L779.8,859.568 C784.261,859.568 788.374,859.568 789.209,859.322 C789.628,860.715 790.046,866.619 790.325,870.228 C790.046,870.719 788.931,870.883 788.583,870.391 C787.537,866.537 786.91,863.667 783.285,862.601 C781.822,862.192 779.591,862.11 776.524,862.11 L771.505,862.11 C769.415,862.11 769.415,862.274 769.415,865.389 L769.415,881.789 C769.415,884.085 769.624,884.085 771.714,884.085 L775.757,884.085 C778.685,884.085 780.845,883.921 781.682,883.593 C782.518,883.266 783.006,882.774 783.355,880.724 L783.913,877.362 C784.261,876.869 785.446,876.869 785.724,877.444 C785.724,879.411 785.446,882.61 785.446,885.726 C785.446,888.678 785.724,891.793 785.724,893.598 C785.446,894.171 784.261,894.171 783.913,893.68 L783.285,890.482 C783.006,889.005 782.518,887.776 781.125,887.365 C780.148,887.037 778.476,886.955 775.757,886.955 L771.714,886.955 C769.624,886.955 769.415,887.037 769.415,889.169 L769.415,900.732 C769.415,905.077 769.624,907.865 770.739,909.26 C771.575,910.243 773.039,911.146 779.172,911.146 C784.54,911.146 786.561,910.818 788.094,909.915 C789.349,909.096 791.231,906.226 793.043,901.961 C793.531,901.552 794.507,901.798 794.786,902.535 C794.298,905.406 792.555,911.72 791.649,913.934 C785.376,913.77 779.172,913.688 772.969,913.688 L766.696,913.688 C763.699,913.688 761.329,913.77 757.216,913.934 C756.798,913.688 756.659,912.375 757.077,911.884 L759.377,911.638 C763.35,911.228 763.699,909.997 763.699,901.388 L763.699,871.867" id="Fill-40" fill="#ffffff"></path>
    </g>
</svg>
